<?xml version="1.0" encoding="UTF-8"?>
<svg id="Ebene_1" xmlns="http://www.w3.org/2000/svg" xmlns:xlink="http://www.w3.org/1999/xlink" viewBox="0 0 152.37 94.65">
  <defs>
    <style>
      .cls-1 {
        stroke: #1d1d1b;
      }

      .cls-1, .cls-2, .cls-3 {
        fill: none;
      }

      .cls-1, .cls-3 {
        stroke-miterlimit: 10;
        stroke-width: .09px;
      }

      .cls-4 {
        fill: #78a94e;
      }

      .cls-5 {
        fill: #fff;
      }

      .cls-6 {
        fill: #7d5616;
      }

      .cls-6, .cls-7 {
        font-family: BBTMartiresFree-ExtraBold, 'BBT Martires Free';
        font-size: 16.77px;
        font-weight: 700;
      }

      .cls-8 {
        clip-path: url(#clippath-1);
      }

      .cls-9 {
        isolation: isolate;
      }

      .cls-10 {
        fill: #844f13;
      }

      .cls-11 {
        clip-path: url(#clippath-3);
      }

      .cls-7 {
        fill: #7d5614;
      }

      .cls-3 {
        stroke: #000;
      }

      .cls-12 {
        clip-path: url(#clippath-2);
      }

      .cls-13 {
        fill: #e9c806;
      }

      .cls-14 {
        clip-path: url(#clippath);
      }
    </style>
    <clipPath id="clippath">
      <rect class="cls-2" x="60.87" y="39.02" width="91.5" height="27.71"/>
    </clipPath>
    <clipPath id="clippath-1">
      <rect class="cls-2" x="60.87" y="39.02" width="91.5" height="27.71"/>
    </clipPath>
    <clipPath id="clippath-2">
      <rect class="cls-2" x="139.61" y="49.18" width="9.19" height="15.32"/>
    </clipPath>
    <clipPath id="clippath-3">
      <rect class="cls-2" x="116.8" y="41.11" width="19.36" height="23.71"/>
    </clipPath>
  </defs>
  <rect class="cls-13" x="47.74" y="64.93" width="4.32" height="7.14" rx=".76" ry=".76" transform="translate(-19.63 116.95) rotate(-88.8)"/>
  <rect class="cls-13" x="40.86" y="61.05" width="4.32" height="7.14" rx=".76" ry=".76" transform="translate(-34.61 64.42) rotate(-56.2)"/>
  <rect class="cls-13" x="53.43" y="62.82" width="7.14" height="4.32" rx=".76" ry=".76" transform="translate(-26.15 41.38) rotate(-32.9)"/>
  <rect class="cls-13" x="70.56" y="44.24" width="7.14" height="4.32" rx=".76" ry=".76" transform="translate(-1.41 90.47) rotate(-62.3)"/>
  <rect class="cls-13" x="72.09" y="35.86" width="7.14" height="4.32" rx=".76" ry=".76" transform="translate(30.07 109.37) rotate(-84.1)"/>
  <rect class="cls-13" x="70.1" y="26.7" width="4.32" height="7.14" rx=".76" ry=".76" transform="translate(-4.46 46.12) rotate(-34.4)"/>
  <rect class="cls-13" x="63.18" y="22.12" width="4.32" height="7.14" rx=".76" ry=".76" transform="translate(28.9 85.71) rotate(-80.2)"/>
  <rect class="cls-13" x="53.64" y="24.6" width="7.14" height="4.32" rx=".76" ry=".76" transform="translate(-5.83 22.83) rotate(-21.5)"/>
  <rect class="cls-13" x="48.53" y="27.83" width="4.32" height="7.14" rx=".76" ry=".76" transform="translate(18.24 81.42) rotate(-88.8)"/>
  <rect class="cls-13" x="42.19" y="22.93" width="4.32" height="7.14" rx=".76" ry=".76" transform="translate(1.95 56.01) rotate(-65.7)"/>
  <rect class="cls-13" x="32.72" y="22.87" width="7.14" height="4.32" rx=".76" ry=".76" transform="translate(-3.2 5.43) rotate(-8.2)"/>
  <rect class="cls-13" x="25.59" y="27.1" width="7.14" height="4.32" rx=".76" ry=".76" transform="translate(-11.64 35.73) rotate(-54.1)"/>
  <rect class="cls-13" x="23.17" y="33.42" width="4.32" height="7.14" rx=".76" ry=".76" transform="translate(-3.01 2.25) rotate(-4.8)"/>
  <rect class="cls-13" x="24.5" y="41.81" width="4.32" height="7.14" rx=".76" ry=".76" transform="translate(-17.14 16.2) rotate(-25.9)"/>
  <rect class="cls-13" x="28.6" y="49.21" width="4.32" height="7.14" rx=".76" ry=".76" transform="translate(-27.01 32.93) rotate(-40.8)"/>
  <rect class="cls-13" x="34.17" y="55.54" width="4.32" height="7.14" rx=".76" ry=".76" transform="translate(-32.6 51.22) rotate(-51.9)"/>
  <rect class="cls-5" x="48.75" y="65.9" width="2.1" height="5.19" rx=".38" ry=".38" transform="translate(-19.72 116.85) rotate(-88.8)"/>
  <rect class="cls-5" x="54.56" y="63.83" width="5.19" height="2.1" rx=".38" ry=".38" transform="translate(-27.05 45.25) rotate(-35.5)"/>
  <rect class="cls-5" x="71.62" y="45.11" width="5.19" height="2.1" rx=".38" ry=".38" transform="translate(-1.99 88.96) rotate(-61.2)"/>
  <rect class="cls-5" x="73.24" y="36.84" width="5.19" height="2.1" rx=".38" ry=".38" transform="translate(31.61 110.21) rotate(-85.1)"/>
  <rect class="cls-5" x="63.96" y="22.99" width="2.1" height="5.19" rx=".38" ry=".38" transform="translate(26.36 83.8) rotate(-77.9)"/>
  <rect class="cls-5" x="71.14" y="27.52" width="2.1" height="5.19" rx=".38" ry=".38" transform="translate(-4.25 46.72) rotate(-34.9)"/>
  <rect class="cls-5" x="54.85" y="25.64" width="5.19" height="2.1" rx=".38" ry=".38" transform="translate(-5.88 25.12) rotate(-23.5)"/>
  <rect class="cls-5" x="49.66" y="28.88" width="2.1" height="5.19" rx=".38" ry=".38" transform="translate(18.18 81.51) rotate(-88.8)"/>
  <rect class="cls-5" x="43.16" y="23.87" width="2.1" height="5.19" rx=".38" ry=".38" transform="translate(1.64 55.5) rotate(-65.2)"/>
  <rect class="cls-5" x="33.98" y="24.01" width="5.19" height="2.1" rx=".38" ry=".38" transform="translate(-3.76 6.66) rotate(-9.9)"/>
  <rect class="cls-5" x="26.72" y="28.16" width="5.19" height="2.1" rx=".38" ry=".38" transform="translate(-11.51 35.97) rotate(-54.3)"/>
  <rect class="cls-5" x="24.23" y="34.27" width="2.1" height="5.19" rx=".38" ry=".38" transform="translate(-2.08 1.52) rotate(-3.3)"/>
  <rect class="cls-5" x="25.55" y="42.51" width="2.1" height="5.19" rx=".38" ry=".38" transform="translate(-17.43 16.76) rotate(-26.7)"/>
  <rect class="cls-5" x="29.42" y="49.99" width="2.1" height="5.19" rx=".38" ry=".38" transform="translate(-25.99 30.11) rotate(-38.2)"/>
  <rect class="cls-5" x="35.09" y="56.42" width="2.1" height="5.19" rx=".38" ry=".38" transform="translate(-32.19 48.05) rotate(-49.4)"/>
  <rect class="cls-5" x="41.77" y="61.96" width="2.1" height="5.19" rx=".38" ry=".38" transform="translate(-34.6 61.8) rotate(-54.4)"/>
  <rect class="cls-13" x="38.81" y="58.27" width="1.57" height="7.1" rx=".27" ry=".27" transform="translate(-33.22 52.41) rotate(-50)"/>
  <rect class="cls-13" x="32.64" y="52.43" width="1.57" height="7.1" rx=".27" ry=".27" transform="translate(-28.38 35.23) rotate(-40.6)"/>
  <rect class="cls-13" x="27.77" y="45.49" width="1.57" height="7.1" rx=".27" ry=".27" transform="translate(-20.1 19.82) rotate(-28.8)"/>
  <rect class="cls-13" x="25.01" y="37.61" width="1.57" height="7.1" rx=".27" ry=".27" transform="translate(-5.15 3.72) rotate(-7.5)"/>
  <rect class="cls-13" x="23.21" y="32.23" width="7.1" height="1.57" rx=".27" ry=".27" transform="translate(-15.34 38.8) rotate(-58.8)"/>
  <rect class="cls-13" x="28.93" y="25.97" width="7.1" height="1.57" rx=".27" ry=".27" transform="translate(-8.87 18.96) rotate(-28.8)"/>
  <rect class="cls-13" x="39.75" y="21.83" width="1.57" height="7.1" rx=".27" ry=".27" transform="translate(8.2 60.61) rotate(-79.5)"/>
  <rect class="cls-13" x="46.91" y="25.67" width="1.57" height="7.1" rx=".27" ry=".27" transform="translate(-6.95 41.14) rotate(-43.8)"/>
  <rect class="cls-13" x="50.4" y="28.51" width="7.1" height="1.57" rx=".27" ry=".27" transform="translate(-5.26 45.5) rotate(-43.8)"/>
  <rect class="cls-13" x="57.56" y="25.07" width="7.1" height="1.57" rx=".27" ry=".27" transform="translate(-3.29 9.88) rotate(-9)"/>
  <rect class="cls-13" x="68.33" y="23.9" width="1.57" height="7.1" rx=".27" ry=".27" transform="translate(9.83 72.34) rotate(-58.8)"/>
  <rect class="cls-13" x="73.81" y="30.57" width="1.57" height="7.1" rx=".27" ry=".27" transform="translate(-7.21 40.16) rotate(-28.8)"/>
  <rect class="cls-13" x="71.67" y="41.6" width="7.1" height="1.57" rx=".27" ry=".27" transform="translate(21.83 110.24) rotate(-81.2)"/>
  <rect class="cls-13" x="45.75" y="63.48" width="1.57" height="7.1" rx=".27" ry=".27" transform="translate(-34.9 72.11) rotate(-58.8)"/>
  <rect class="cls-13" x="49.86" y="66.14" width="7.1" height="1.57" rx=".27" ry=".27" transform="translate(-25.64 34.01) rotate(-28.8)"/>
  <g>
    <g>
      <polygon class="cls-13" points="44.19 6.88 46.75 4.47 48.51 22.08 46.98 22.34 44.19 6.88"/>
      <polygon class="cls-13" points="58.32 7.18 55.88 4.66 53.4 22.19 54.89 22.53 58.32 7.18"/>
      <polygon class="cls-13" points="49.62 22 48.7 2.52 51.49 0 54.01 2.64 52.29 22.04 49.62 22"/>
    </g>
    <g>
      <polygon class="cls-13" points="57.02 87.7 54.54 90.14 52.59 72.53 54.12 72.26 57.02 87.7"/>
      <polygon class="cls-13" points="42.93 87.5 45.38 90.03 47.71 72.46 46.22 72.15 42.93 87.5"/>
      <polygon class="cls-13" points="51.49 72.61 52.59 92.09 49.84 94.65 47.29 92.05 48.81 72.61 51.49 72.61"/>
    </g>
    <g>
      <polygon class="cls-13" points="6.88 48.85 4.47 46.29 22.08 44.54 22.34 46.06 6.88 48.85"/>
      <polygon class="cls-13" points="7.22 34.72 4.66 37.13 22.19 39.68 22.53 38.16 7.22 34.72"/>
      <polygon class="cls-13" points="22 43.47 2.52 44.34 0 41.56 2.64 39.04 22.04 40.75 22 43.47"/>
    </g>
    <g>
      <polygon class="cls-13" points="13.94 15.97 14.51 12.49 26.39 25.63 25.32 26.77 13.94 15.97"/>
      <polygon class="cls-13" points="25.48 7.83 22.04 7.26 30.4 22.88 31.82 22.23 25.48 7.83"/>
      <polygon class="cls-13" points="27.23 24.94 14.97 9.78 15.7 6.11 19.29 6.72 29.45 23.38 27.23 24.94"/>
    </g>
    <g>
      <polygon class="cls-13" points="78.49 9.97 81.97 9.89 71.54 24.18 70.2 23.38 78.49 9.97"/>
      <polygon class="cls-13" points="88.76 19.67 88.65 16.16 75.05 27.5 75.97 28.76 88.76 19.67"/>
      <polygon class="cls-13" points="72.38 24.86 84.72 9.78 88.5 9.74 88.61 13.37 74.37 26.66 72.38 24.86"/>
    </g>
    <g>
      <polygon class="cls-13" points="24.25 74.52 20.74 74.29 32.47 61 33.69 61.95 24.25 74.52"/>
      <polygon class="cls-13" points="14.9 63.94 14.67 67.45 29.22 57.37 28.46 56.03 14.9 63.94"/>
      <polygon class="cls-13" points="31.66 60.27 18.03 74.17 14.25 73.87 14.48 70.2 29.83 58.25 31.66 60.27"/>
    </g>
  </g>
  <g class="cls-14">
    <text class="cls-6" transform="translate(63.92 63.44) rotate(4)"><tspan x="0" y="0">P</tspan></text>
    <text class="cls-6" transform="translate(72.22 63.45) rotate(4)"><tspan x="0" y="0">U</tspan></text>
    <text class="cls-6" transform="translate(80.21 63.44) rotate(4)"><tspan x="0" y="0">S</tspan></text>
    <text class="cls-6" transform="translate(88.38 63.45) rotate(4)"><tspan x="0" y="0">O</tspan></text>
    <text class="cls-6" transform="translate(96.21 63.46) rotate(4)"><tspan x="0" y="0">C</tspan></text>
    <text class="cls-6" transform="translate(103.99 63.43) rotate(4)"><tspan x="0" y="0">H</tspan></text>
    <text class="cls-6" transform="translate(112.43 63.42) rotate(4)"><tspan x="0" y="0">A</tspan></text>
    <text class="cls-7" transform="translate(121.36 63.56) rotate(4)"><tspan x="0" y="0"> </tspan></text>
    <text class="cls-6" transform="translate(131 63.42) rotate(4)"><tspan x="0" y="0">N</tspan></text>
    <g class="cls-8">
      <g class="cls-9">
        <g class="cls-12">
          <text class="cls-6" transform="translate(139.65 63.39) rotate(4)"><tspan x="0" y="0">Z</tspan></text>
        </g>
      </g>
    </g>
    <g class="cls-11">
      <path class="cls-10" d="M124.85,64s.9.69,2.34.41c.39-1.2.73-2.56.95-4.08.63-4.31.02-7.99-.67-10.52-.26-.17-.6-.43-.91-.81-.43-.5-.65-.99-.78-1.33l-.07,1.17s3.06,6.18-.86,15.14h0Z"/>
      <path class="cls-3" d="M124.85,64s.9.69,2.34.41c.39-1.2.73-2.56.95-4.08.63-4.31.02-7.99-.67-10.52-.26-.17-.6-.43-.91-.81-.43-.5-.65-.99-.78-1.33l-.07,1.17s3.06,6.18-.86,15.14h0Z"/>
      <path d="M125.45,63.17c.24.27.6.4.95.45.36.04.72,0,1.07-.07l-.03-.13c-.34.1-.68.16-1.03.13-.34-.02-.7-.13-.96-.38"/>
      <path d="M125.49,62.89c.22.31.61.44.97.46.37.03.75-.04,1.1-.14l-.04-.13c-.34.12-.7.2-1.06.2-.36,0-.74-.1-.97-.4h0Z"/>
      <path d="M125.94,62.07c.58.23,1.24.33,1.87.16l-.04-.13c-.58.2-1.24.16-1.83-.03h0Z"/>
      <path class="cls-3" d="M125.94,61.61s.63.56,1.7.31"/>
      <path d="M126.48,60.56c.22.18.51.24.79.27.28.02.57,0,.85-.05l-.03-.13c-.27.07-.54.11-.82.11-.27,0-.56-.04-.79-.2h0Z"/>
      <path d="M126.75,60.12c.37.33.89.5,1.4.42l-.02-.13c-.46.11-.98,0-1.37-.29"/>
      <path d="M126.85,58.85c.19.16.44.23.68.27.25.04.5.03.75,0l-.02-.13c-.24.05-.48.08-.72.07-.24-.01-.49-.07-.69-.21"/>
      <path class="cls-3" d="M126.89,58.58s.13.26,1.15.06"/>
      <path d="M127.27,57.69c.16.11.37.11.55.12.19,0,.38-.02.57-.05l-.03-.13c-.18.05-.36.09-.55.12-.18.02-.38.04-.55-.05h0Z"/>
      <path d="M127.36,56.35c.33.13.72.12,1.06-.02l-.06-.12c-.29.17-.66.23-1,.14"/>
      <path d="M127.82,55.99c-.17.04-.34.07-.51.07-.18,0-.35,0-.54-.07l.07-.11c.12.07.31.1.47.11.17.01.34,0,.51,0h0Z"/>
      <path d="M127.24,55.22c.38.08.79-.01,1.14-.18l-.06-.11c-.31.2-.69.33-1.08.3"/>
      <path class="cls-3" d="M128.25,54.04s-.59.22-1.44.07"/>
      <path class="cls-3" d="M126.81,53.44s.71.28,1.37-.03"/>
      <path d="M127.74,52.69c-.16.07-.34.08-.51.1-.17.01-.35.02-.52.02v-.13c.18.02.35.04.52.05.17,0,.34.01.51-.03h0Z"/>
      <path d="M127.02,52.15c.16.04.33.06.5.06.17,0,.35-.03.51-.12l-.07-.11c-.12.09-.28.14-.45.16-.16.02-.33.03-.5,0"/>
      <path d="M127.56,51.36c-.17.05-.35.06-.53.07-.18,0-.36,0-.54,0v-.13c.19.03.37.05.54.07.18.01.35.03.53,0h0Z"/>
      <path d="M127.46,50.92c-.3.19-.63.33-.96.46l-.04-.13c.34-.09.68-.18,1-.33h0Z"/>
      <path d="M127.41,50.36c-.05.09-.15.13-.24.16-.1.03-.19.05-.29.06-.2.03-.4.03-.6.03v-.13c.2.02.4.04.6.04.1,0,.2,0,.29-.03.09-.02.19-.05.25-.13h0Z"/>
      <path class="cls-3" d="M126.03,49.75l.92.08c-.13.18-.72.34-.72.34"/>
      <path d="M126.32,49.21l-.23.02h-.12s-.06.01-.06.01c-.02,0-.03,0-.07,0l.03-.08v-.03s.01-.02.01-.02h.01s.03,0,.03,0h.06s.11.03.11.03l.23.04h0Z"/>
      <path class="cls-4" d="M125.72,47.13s.31,2.92-.68,4.53l-1.09-.29.82.7-.91,1.18-.79-.22.54.54-1.74,1.99-.81-2.21.47-.38-.54.05s-.23-1.29-.18-1.7l.7-.45-.68.07s.43-2.12,1.33-2.71l-1.27.07.04-.73-.41.82-1.47.57-.04-.63s-.52.66-.47.95c0,0-1.02.63-1.15.84,0,0,1.14-6.52,6.33-4.65l-.33-.63.48-.82-.73.5s-1.13-.73-1.43-.77l.39-.8-.82.64s-1.15-.25-2.05,1.49c0,0-.52-2.75,4.09-3.61,0,0,3.44-.37,3.38,3.82,0,0,1.94-3.5,6.26-1.61,0,0,2.5,1.14,2.87,2.75,0,0-1.23-.43-1.5-.35l-.82-.73.18.62s-1.43.02-1.77.1l-.77-.66.26.73s-.92.13-.99.24l.92.61-.46.38.82-.11s.99.91,1.16,1.54l-.38.19.51.03s.31.49.83,2.13c0,0-1.99-.39-2.61-.3l.22-.77-.76.71s-1.28-.13-1.76-.34c0,0,.04-.72.15-1.15l-.69,1.01s-2.04-.37-2.65-3.23h0Z"/>
      <path class="cls-1" d="M125.72,47.13s.31,2.92-.68,4.53l-1.09-.29.82.7-.91,1.18-.79-.22.54.54-1.74,1.99-.81-2.21.47-.38-.54.05s-.23-1.29-.18-1.7l.7-.45-.68.07s.43-2.12,1.33-2.71l-1.27.07.04-.73-.41.82-1.47.57-.04-.63s-.52.66-.47.95c0,0-1.02.63-1.15.84,0,0,1.14-6.52,6.33-4.65l-.33-.63.48-.82-.73.5s-1.13-.73-1.43-.77l.39-.8-.82.64s-1.15-.25-2.05,1.49c0,0-.52-2.75,4.09-3.61,0,0,3.44-.37,3.38,3.82,0,0,1.94-3.5,6.26-1.61,0,0,2.5,1.14,2.87,2.75,0,0-1.23-.43-1.5-.35l-.82-.73.18.62s-1.43.02-1.77.1l-.77-.66.26.73s-.92.13-.99.24l.92.61-.46.38.82-.11s.99.91,1.16,1.54l-.38.19.51.03s.31.49.83,2.13c0,0-1.99-.39-2.61-.3l.22-.77-.76.71s-1.28-.13-1.76-.34c0,0,.04-.72.15-1.15l-.69,1.01s-2.04-.37-2.65-3.23h0Z"/>
      <path d="M122.62,42.03c.5.03.97.24,1.37.54.4.3.7.7.94,1.14.49.87.69,1.86.8,2.85h.13c-.13-1.01-.36-2.01-.88-2.88-.25-.43-.57-.84-.98-1.13-.4-.29-.89-.5-1.39-.52"/>
      <path d="M132.98,44.31c-.54-.1-1.09-.14-1.63-.08-.54.07-1.08.19-1.59.39-1.02.39-1.97.96-2.79,1.67l-.09-.1c.85-.71,1.82-1.26,2.86-1.64.52-.19,1.06-.3,1.61-.36.55-.05,1.1,0,1.64.11h0Z"/>
      <path d="M118.74,47.14c.36-.38.84-.63,1.32-.8.49-.17,1.01-.24,1.53-.24,1.04,0,2.06.26,3.02.64l.05-.12c-.98-.37-2.02-.61-3.07-.59-.52.01-1.05.09-1.54.27-.49.18-.96.44-1.31.83"/>
      <path d="M126.5,46.48c.13-.39.15-.81.15-1.22h.13c-.04.42-.11.84-.28,1.22"/>
      <path d="M126.63,46.81c.57-.35,1.23-.5,1.88-.54.66-.03,1.32.06,1.95.24l.04-.13c-.65-.17-1.32-.23-1.99-.18-.66.07-1.32.24-1.88.61h0Z"/>
      <path d="M132.99,50.47c-.82-.95-1.79-1.77-2.89-2.36-.55-.28-1.14-.51-1.75-.65-.6-.13-1.24-.19-1.84-.1l-.02-.13c.64-.08,1.27,0,1.89.14.61.15,1.2.39,1.76.69,1.1.61,2.06,1.46,2.86,2.42"/>
      <path d="M125.22,46.69c-.19-.28-.45-.5-.72-.7-.27-.19-.57-.35-.87-.48l.05-.12c.31.15.59.34.86.55.26.21.51.46.68.75h0Z"/>
      <path d="M124.73,47.09c-.49.11-.94.32-1.38.54-.44.23-.87.48-1.28.75l-.07-.11c.43-.26.87-.49,1.33-.7.45-.21.92-.39,1.41-.48h0Z"/>
      <path d="M119.52,44.3c.1-.1.23-.16.38-.19v.13c-.12-.02-.26,0-.38.05"/>
      <path d="M122.99,52c-.19-.46-.2-.98-.1-1.47.1-.49.34-.94.62-1.34.58-.81,1.38-1.43,2.23-1.95l-.07-.11c-.84.55-1.64,1.18-2.21,2.02-.28.41-.51.87-.6,1.37-.09.49-.07,1.02.13,1.47h0Z"/>
    </g>
  </g>
</svg>