<?xml version="1.0" encoding="UTF-8"?>
<svg id="Ebene_1" xmlns="http://www.w3.org/2000/svg" viewBox="0 0 146.22 136.76">
  <defs>
    <style>
      .cls-1 {
        fill: #fff;
      }

      .cls-2 {
        fill: #e9c807;
      }
    </style>
  </defs>
  <rect class="cls-2" x="66.95" y="95.85" width="10.31" height="6.23" rx="2.03" ry="2.03" transform="translate(2.09 -1.49) rotate(1.2)"/>
  <rect class="cls-2" x="56.98" y="90.24" width="10.31" height="6.23" rx="2.03" ry="2.03" transform="translate(62.4 -18.79) rotate(33.78)"/>
  <rect class="cls-2" x="77.19" y="90.71" width="10.31" height="6.23" rx="2.03" ry="2.03" transform="translate(-37.78 59.85) rotate(-32.94)"/>
  <rect class="cls-2" x="101.91" y="63.84" width="10.31" height="6.23" rx="2.03" ry="2.03" transform="translate(216.07 3.2) rotate(117.66)"/>
  <rect class="cls-2" x="104.25" y="51.83" width="10.31" height="6.23" rx="2.03" ry="2.03" transform="translate(175.37 -48.19) rotate(95.93)"/>
  <rect class="cls-2" x="99.22" y="40.57" width="10.31" height="6.23" rx="2.03" ry="2.03" transform="translate(81.39 -67.1) rotate(55.57)"/>
  <rect class="cls-2" x="89.2" y="33.95" width="10.31" height="6.23" rx="2.03" ry="2.03" transform="translate(7.64 -15.44) rotate(9.75)"/>
  <rect class="cls-2" x="77.54" y="35.56" width="10.31" height="6.23" rx="2.03" ry="2.03" transform="translate(-8.42 33.01) rotate(-21.51)"/>
  <rect class="cls-2" x="68.05" y="42.25" width="10.31" height="6.23" rx="2.03" ry="2.03" transform="translate(.97 -1.52) rotate(1.2)"/>
  <rect class="cls-2" x="58.94" y="35.17" width="10.31" height="6.23" rx="2.03" ry="2.03" transform="translate(21.43 -22.98) rotate(24.29)"/>
  <rect class="cls-2" x="47.31" y="33.07" width="10.31" height="6.23" rx="2.03" ry="2.03" transform="translate(-4.63 7.85) rotate(-8.2)"/>
  <rect class="cls-2" x="36.97" y="39.17" width="10.31" height="6.23" rx="2.03" ry="2.03" transform="translate(-16.83 51.59) rotate(-54.07)"/>
  <rect class="cls-2" x="31.47" y="50.35" width="10.31" height="6.23" rx="2.03" ry="2.03" transform="translate(86.83 12.48) rotate(85.18)"/>
  <rect class="cls-2" x="33.4" y="62.4" width="10.31" height="6.23" rx="2.03" ry="2.03" transform="translate(80.62 2.19) rotate(64.07)"/>
  <rect class="cls-2" x="39.25" y="73.16" width="10.31" height="6.23" rx="2.03" ry="2.03" transform="translate(73.18 -7.17) rotate(49.23)"/>
  <rect class="cls-2" x="47.32" y="82.34" width="10.31" height="6.23" rx="2.03" ry="2.03" transform="translate(63.99 -14.16) rotate(38.14)"/>
  <rect class="cls-1" x="68.21" y="97.51" width="7.53" height="3.04" rx=".99" ry=".99" transform="translate(2.09 -1.49) rotate(1.2)"/>
  <rect class="cls-1" x="78.85" y="92.18" width="7.53" height="3.04" rx=".99" ry=".99" transform="translate(-39.08 65.48) rotate(-35.54)"/>
  <rect class="cls-1" x="103.48" y="65.17" width="7.53" height="3.04" rx=".99" ry=".99" transform="translate(-2.85 128.56) rotate(-61.21)"/>
  <rect class="cls-1" x="105.87" y="53.21" width="7.53" height="3.04" rx=".99" ry=".99" transform="translate(45.69 159.26) rotate(-85.07)"/>
  <rect class="cls-1" x="90.25" y="35.51" width="7.53" height="3.04" rx=".99" ry=".99" transform="translate(9.9 -18.95) rotate(12.15)"/>
  <rect class="cls-1" x="100.51" y="41.9" width="7.53" height="3.04" rx=".99" ry=".99" transform="translate(128.41 153.75) rotate(-124.95)"/>
  <rect class="cls-1" x="79.25" y="37.08" width="7.53" height="3.04" rx=".99" ry=".99" transform="translate(-8.51 36.24) rotate(-23.46)"/>
  <rect class="cls-1" x="69.51" y="43.95" width="7.53" height="3.04" rx=".99" ry=".99" transform="translate(.97 -1.53) rotate(1.2)"/>
  <rect class="cls-1" x="60.12" y="36.73" width="7.53" height="3.04" rx=".99" ry=".99" transform="translate(21.92 -23.26) rotate(24.79)"/>
  <rect class="cls-1" x="49.06" y="34.7" width="7.53" height="3.04" rx=".99" ry=".99" transform="translate(-5.42 9.58) rotate(-9.86)"/>
  <rect class="cls-1" x="38.57" y="40.62" width="7.53" height="3.04" rx=".99" ry=".99" transform="translate(101.25 32.29) rotate(125.65)"/>
  <rect class="cls-1" x="32.78" y="51.75" width="7.53" height="3.04" rx=".99" ry=".99" transform="translate(87.59 13.67) rotate(86.65)"/>
  <rect class="cls-1" x="34.69" y="63.75" width="7.53" height="3.04" rx=".99" ry=".99" transform="translate(79.53 1.61) rotate(63.34)"/>
  <rect class="cls-1" x="40.32" y="74.4" width="7.53" height="3.04" rx=".99" ry=".99" transform="translate(76.42 -5.7) rotate(51.75)"/>
  <rect class="cls-1" x="48.48" y="83.72" width="7.53" height="3.04" rx=".99" ry=".99" transform="translate(68.02 -13.48) rotate(40.58)"/>
  <rect class="cls-1" x="58.13" y="91.71" width="7.53" height="3.04" rx=".99" ry=".99" transform="translate(65.77 -18.61) rotate(35.56)"/>
  <rect class="cls-2" x="52.03" y="88.23" width="10.28" height="2.24" rx=".73" ry=".73" transform="translate(70.81 -15.84) rotate(40)"/>
  <rect class="cls-2" x="43.15" y="79.75" width="10.28" height="2.24" rx=".73" ry=".73" transform="translate(78.24 -8.43) rotate(49.38)"/>
  <rect class="cls-2" x="36.08" y="69.73" width="10.28" height="2.24" rx=".73" ry=".73" transform="translate(83.45 .6) rotate(61.2)"/>
  <rect class="cls-2" x="32.14" y="58.35" width="10.28" height="2.24" rx=".73" ry=".73" transform="translate(91.36 14.72) rotate(82.48)"/>
  <rect class="cls-2" x="33.53" y="46.61" width="10.28" height="2.24" rx=".73" ry=".73" transform="translate(-22.19 56.08) rotate(-58.8)"/>
  <rect class="cls-2" x="41.76" y="37.54" width="10.28" height="2.24" rx=".73" ry=".73" transform="translate(106.62 49.95) rotate(151.2)"/>
  <rect class="cls-2" x="53.44" y="35.57" width="10.28" height="2.24" rx=".73" ry=".73" transform="translate(7.67 -10.07) rotate(10.51)"/>
  <rect class="cls-2" x="63.77" y="41.1" width="10.28" height="2.24" rx=".73" ry=".73" transform="translate(51.69 -36.74) rotate(46.2)"/>
  <rect class="cls-2" x="72.82" y="41.17" width="10.28" height="2.24" rx=".73" ry=".73" transform="translate(-7.58 65.72) rotate(-43.8)"/>
  <rect class="cls-2" x="83.18" y="36.2" width="10.28" height="2.24" rx=".73" ry=".73" transform="translate(-4.76 14.31) rotate(-9.02)"/>
  <rect class="cls-2" x="94.71" y="38.59" width="10.28" height="2.24" rx=".73" ry=".73" transform="translate(35.01 -45.98) rotate(31.2)"/>
  <rect class="cls-2" x="102.67" y="48.19" width="10.28" height="2.24" rx=".73" ry=".73" transform="translate(99.08 -68.92) rotate(61.2)"/>
  <rect class="cls-2" x="103.5" y="60.04" width="10.28" height="2.24" rx=".73" ry=".73" transform="translate(185.64 -36.89) rotate(98.77)"/>
  <rect class="cls-2" x="62.09" y="95.72" width="10.28" height="2.24" rx=".73" ry=".73" transform="translate(59.89 -20.82) rotate(31.2)"/>
  <rect class="cls-2" x="72.03" y="95.61" width="10.28" height="2.24" rx=".73" ry=".73" transform="translate(-37.05 49.14) rotate(-28.8)"/>
  <g>
    <g>
      <polygon class="cls-2" points="63.87 9.93 67.53 6.45 70.11 31.9 67.9 32.29 63.87 9.93"/>
      <polygon class="cls-2" points="84.26 10.39 80.77 6.76 77.13 32.08 79.31 32.56 84.26 10.39"/>
      <polygon class="cls-2" points="71.67 31.81 70.36 3.67 74.37 0 78.03 3.79 75.58 31.84 71.67 31.81"/>
    </g>
    <g>
      <polygon class="cls-2" points="82.42 126.73 78.79 130.25 75.98 104.82 78.19 104.41 82.42 126.73"/>
      <polygon class="cls-2" points="62.02 126.45 65.56 130.06 68.96 104.71 66.77 104.24 62.02 126.45"/>
      <polygon class="cls-2" points="74.42 104.92 75.99 133.05 72.01 136.76 68.31 133 70.51 104.93 74.42 104.92"/>
    </g>
    <g>
      <polygon class="cls-2" points="9.92 70.57 6.44 66.9 31.89 64.35 32.28 66.56 9.92 70.57"/>
      <polygon class="cls-2" points="10.4 50.17 6.76 53.67 32.08 57.33 32.57 55.15 10.4 50.17"/>
      <polygon class="cls-2" points="31.81 62.79 3.66 64.06 0 60.05 3.8 56.39 31.84 58.88 31.81 62.79"/>
    </g>
    <g>
      <polygon class="cls-2" points="20.12 23.04 21 18.07 38.14 37.05 36.6 38.68 20.12 23.04"/>
      <polygon class="cls-2" points="36.83 11.34 31.85 10.48 43.91 33.04 45.96 32.14 36.83 11.34"/>
      <polygon class="cls-2" points="39.35 36.06 21.64 14.15 22.7 8.82 27.9 9.71 42.52 33.77 39.35 36.06"/>
    </g>
    <g>
      <polygon class="cls-2" points="113.4 14.42 118.45 14.28 103.35 34.93 101.45 33.75 113.4 14.42"/>
      <polygon class="cls-2" points="128.26 28.4 128.09 23.36 108.46 39.76 109.76 41.58 128.26 28.4"/>
      <polygon class="cls-2" points="104.58 35.91 122.42 14.11 127.85 14.06 128.04 19.33 107.46 38.55 104.58 35.91"/>
    </g>
    <g>
      <polygon class="cls-2" points="35.03 107.66 29.99 107.35 46.89 88.15 48.68 89.5 35.03 107.66"/>
      <polygon class="cls-2" points="21.5 92.4 21.21 97.44 42.24 82.88 41.11 80.95 21.5 92.4"/>
      <polygon class="cls-2" points="45.76 87.06 26.02 107.16 20.61 106.72 20.9 101.46 43.12 84.17 45.76 87.06"/>
    </g>
  </g>
  <rect class="cls-2" x="95.08" y="73.55" width="10.31" height="6.23" rx="2.03" ry="2.03" transform="translate(223.75 50.82) rotate(130.77)"/>
  <rect class="cls-2" x="87.01" y="82.74" width="10.31" height="6.23" rx="2.03" ry="2.03" transform="translate(217.68 96.45) rotate(141.86)"/>
  <rect class="cls-1" x="96.79" y="74.79" width="7.53" height="3.04" rx=".99" ry=".99" transform="translate(222.74 44.58) rotate(128.25)"/>
  <rect class="cls-1" x="88.63" y="84.11" width="7.53" height="3.04" rx=".99" ry=".99" transform="translate(218.28 90.55) rotate(139.42)"/>
  <rect class="cls-2" x="82.33" y="88.63" width="10.28" height="2.24" rx=".73" ry=".73" transform="translate(212.16 102.27) rotate(140)"/>
  <rect class="cls-2" x="91.21" y="80.15" width="10.28" height="2.24" rx=".73" ry=".73" transform="translate(220.76 61.03) rotate(130.62)"/>
  <rect class="cls-2" x="98.72" y="70.91" width="10.28" height="2.24" rx=".73" ry=".73" transform="translate(222.39 28.15) rotate(124.94)"/>
  <g>
    <polygon class="cls-2" points="108.09 110.31 113.14 110.01 96.24 90.8 94.45 92.15 108.09 110.31"/>
    <polygon class="cls-2" points="121.63 95.05 121.91 100.09 100.88 85.53 102.01 83.6 121.63 95.05"/>
    <polygon class="cls-2" points="97.37 89.71 117.1 109.82 122.52 109.37 122.23 104.11 100 86.83 97.37 89.71"/>
  </g>
  <g>
    <polygon class="cls-2" points="136.3 72.67 139.78 69.01 114.33 66.46 113.94 68.67 136.3 72.67"/>
    <polygon class="cls-2" points="135.81 52.28 139.45 55.77 114.14 59.43 113.65 57.25 135.81 52.28"/>
    <polygon class="cls-2" points="114.41 64.9 142.56 66.17 146.22 62.16 142.42 58.5 114.38 60.99 114.41 64.9"/>
  </g>
</svg>